<svg width="1282" height="312" viewBox="0 0 1282 312" fill="none" xmlns="http://www.w3.org/2000/svg">
<path fill-rule="evenodd" clip-rule="evenodd" d="M262.905 36.3016C272.195 38.7889 279.453 46.0435 281.944 55.3326L317.205 186.825C319.772 196.399 316.87 206.61 309.651 213.403L233.079 285.449L277.177 77.6934H218.627L191.4 205.951C189.353 215.224 185.872 223.338 180.959 230.293C176.182 237.112 170.177 242.43 162.944 246.249C155.847 250.067 147.863 251.976 138.992 251.976C126.981 251.976 117.906 249.113 111.764 243.385C105.622 237.521 102.552 228.998 102.552 217.815C102.552 215.497 102.688 212.701 102.961 209.428C103.371 206.019 103.848 202.951 104.394 200.223L130.598 77.6934H72.0485L44.2067 209.837C43.2514 214.201 42.5007 219.043 41.9548 224.361C41.5454 229.68 41.3407 234.589 41.3407 239.089C41.3407 251.499 44.0702 262.477 49.5294 272.023C51.5127 275.358 53.7874 278.445 56.3536 281.283L56.182 281.243C46.5101 278.988 38.8652 271.591 36.2929 261.999L1.04376 130.551C-1.4487 121.256 1.20992 111.338 8.01712 104.536L104.752 7.87757C111.551 1.0838 121.457 -1.56935 130.742 0.916487L262.905 36.3016ZM133.493 299.266L185.105 311.298C187.96 311.963 190.905 312.158 193.823 311.874L197.135 311.552C203.065 310.975 208.636 308.447 212.976 304.364L220.173 297.593H174.203L181.369 263.841H180.14C176.182 271.068 170.655 277.614 163.558 283.478C156.598 289.342 148.477 293.979 139.196 297.388C137.327 298.085 135.425 298.711 133.493 299.266Z" fill="currentColor"/>
<path d="M479.068 197.948L494.08 114.548H531.054L504.922 263H471.006L474.898 241.316C462.388 257.718 448.21 265.78 431.808 265.78C401.506 265.78 384.548 241.594 390.942 206.01L406.788 114.548H443.762L429.306 197.67C425.414 219.632 433.476 232.142 448.766 232.142C465.446 232.142 475.176 218.798 479.068 197.948ZM697.404 172.372C697.404 225.192 664.6 265.78 622.344 265.78C602.606 265.78 587.316 255.772 581.478 239.092L567.578 316.654H530.604L566.188 114.548H600.104L596.212 137.344C607.054 121.776 624.846 111.768 644.028 111.768C675.442 111.768 697.404 136.51 697.404 172.372ZM658.762 176.542C658.762 157.36 647.364 145.128 630.962 145.128C606.22 145.128 588.984 170.148 588.984 201.006C588.984 219.91 600.382 232.42 617.062 232.42C641.248 232.42 658.762 208.79 658.762 176.542ZM800.989 226.304L795.429 260.22C786.811 264.112 777.081 265.78 767.629 265.78C736.493 265.78 720.925 243.54 727.319 208.79L738.161 146.796H709.249L715.087 114.548H743.999L751.505 70.6244H788.479L780.973 114.548H822.117L816.279 146.796H775.135L764.293 208.79C761.791 223.524 767.351 231.03 780.695 231.03C787.645 231.03 795.707 229.362 800.989 226.304ZM886.709 265.78C850.291 265.78 821.101 241.872 821.101 201.562C821.101 149.854 855.573 111.768 901.165 111.768C946.757 111.768 968.163 149.854 960.101 198.226H859.743V199.338C859.743 221.578 870.585 234.088 889.767 234.088C903.945 234.088 913.397 226.86 918.957 212.404H956.765C944.811 249.656 918.957 265.78 886.709 265.78ZM900.887 140.958C881.149 140.958 868.639 155.136 863.079 174.318H926.185C927.297 155.414 918.401 140.958 900.887 140.958ZM1035.96 265.78C1000.1 265.78 973.132 239.092 973.132 202.118C973.132 150.41 1007.33 111.768 1053.75 111.768C1090.45 111.768 1114.63 137.344 1114.91 177.376H1076.55C1076.27 157.082 1066.54 145.128 1050.97 145.128C1027.9 145.128 1011.77 168.202 1011.77 199.616C1011.77 219.632 1022.62 232.698 1039.57 232.698C1055.14 232.698 1067.93 222.134 1074.6 199.894H1111.85C1103.79 239.648 1074.88 265.78 1035.96 265.78ZM1176.81 181.824L1162.35 263H1125.38L1160.4 63.3964H1194.32L1181.81 135.954C1193.21 120.664 1208.78 111.768 1226.57 111.768C1257.15 111.768 1274.11 136.232 1267.99 171.538L1251.87 263H1214.89L1229.63 179.878C1233.24 157.916 1226.29 145.128 1209.61 145.128C1191.82 145.128 1180.7 159.306 1176.81 181.824Z" fill="currentColor"/>
</svg>
